<?xml version="1.0" standalone="no"?>
<!DOCTYPE svg PUBLIC "-//W3C//DTD SVG 20010904//EN"
 "http://www.w3.org/TR/2001/REC-SVG-20010904/DTD/svg10.dtd">
<svg version="1.0" xmlns="http://www.w3.org/2000/svg"
 width="3000.000000pt" height="3000.000000pt" viewBox="0 0 3000.000000 3000.000000"
 preserveAspectRatio="xMidYMid meet">
<metadata>
Created by potrace 1.11, written by Peter Selinger 2001-2013
</metadata>
<g transform="translate(0.000000,3000.000000) scale(0.100000,-0.100000)"
fill="#000000" stroke="none">
<path d="M0 15000 l0 -12000 15000 0 15000 0 0 12000 0 12000 -15000 0 -15000
0 0 -12000z m29120 20 l0 -10630 -14125 0 -14125 0 0 10630 0 10630 14125 0
14125 0 0 -10630z"/>
<path d="M2230 15020 l0 -9270 12765 0 12765 0 0 9270 0 9270 -12765 0 -12765
0 0 -9270z m13103 6878 c-11 -13 -1088 -1283 -2393 -2823 -1305 -1540 -2384
-2812 -2397 -2826 l-24 -26 2526 -3612 c1389 -1987 2533 -3624 2542 -3637 l15
-24 -643 0 -644 1 -2235 3216 c-1229 1768 -2249 3235 -2265 3259 l-31 43
-1117 -1269 -1117 -1270 0 -1990 0 -1990 -585 0 -585 0 2 6478 3 6477 583 3
582 2 0 -3761 c0 -3216 2 -3760 14 -3750 8 6 1473 1701 3257 3766 l3244 3755
644 0 644 0 -20 -22z m2939 -5895 l3 -5918 3418 -3 3417 -2 0 -565 0 -565
-4005 0 -4005 0 0 6485 0 6485 585 0 585 0 2 -5917z"/>
</g>
</svg>
